HIERARCHY
ROOT newVegas:Hips
{
	OFFSET 0.000000 96.479958 0.000000
	CHANNELS 6 Xposition Yposition Zposition Xrotation Yrotation Zrotation
	JOINT newVegas:Pelvis
	{
		OFFSET 0.000000 0.000000 0.000000
		CHANNELS 3 Xrotation Yrotation Zrotation
		JOINT newVegas:LeftUpLeg
		{
			OFFSET 18.735201 -5.666702 -4.541200
			CHANNELS 3 Xrotation Yrotation Zrotation
			JOINT newVegas:LeftLeg
			{
				OFFSET -0.021200 -31.938179 0.493100
				CHANNELS 3 Xrotation Yrotation Zrotation
				JOINT newVegas:LeftFoot
				{
					OFFSET 0.021200 -31.938179 -4.336299
					CHANNELS 3 Xrotation Yrotation Zrotation
					JOINT newVegas:LeftToeBase
					{
						OFFSET 0.943001 -26.722000 15.023500
						CHANNELS 3 Xrotation Yrotation Zrotation
						End Site
						{
							OFFSET 0.000000 30.670183 0.000000
						}
					}
				}
				JOINT newVegas:Left_PantLeg
				{
					OFFSET 0.663870 -9.044666 -1.108900
					CHANNELS 3 Xrotation Yrotation Zrotation
					End Site
					{
						OFFSET 1.415995 20.635357 0.000000
					}
				}
			}
		}
		JOINT newVegas:RightUpLeg
		{
			OFFSET -18.735201 -5.666702 -4.541200
			CHANNELS 3 Xrotation Yrotation Zrotation
			JOINT newVegas:RightLeg
			{
				OFFSET 0.018946 -31.938133 0.493100
				CHANNELS 3 Xrotation Yrotation Zrotation
				JOINT newVegas:RightFoot
				{
					OFFSET -0.018946 -31.938126 -4.336299
					CHANNELS 3 Xrotation Yrotation Zrotation
					JOINT newVegas:RightToeBase
					{
						OFFSET -0.943001 -26.722004 15.023500
						CHANNELS 3 Xrotation Yrotation Zrotation
						End Site
						{
							OFFSET 0.000000 30.670187 0.000000
						}
					}
				}
				JOINT newVegas:Right_PantLeg
				{
					OFFSET -0.661674 -9.044716 -1.108900
					CHANNELS 3 Xrotation Yrotation Zrotation
					End Site
					{
						OFFSET -1.415958 20.635269 0.000000
					}
				}
			}
		}
	}
	JOINT newVegas:Spine
	{
		OFFSET 0.000000 10.199997 -0.299500
		CHANNELS 3 Xrotation Yrotation Zrotation
		JOINT newVegas:Spine1
		{
			OFFSET 0.000000 11.900002 -1.516600
			CHANNELS 3 Xrotation Yrotation Zrotation
			JOINT newVegas:Spine2
			{
				OFFSET 0.000000 13.600006 -2.842500
				CHANNELS 3 Xrotation Yrotation Zrotation
				JOINT newVegas:Neck
				{
					OFFSET 0.000000 9.624100 -2.890100
					CHANNELS 3 Xrotation Yrotation Zrotation
					JOINT newVegas:Head
					{
						OFFSET 0.000000 14.068802 -1.351900
						CHANNELS 3 Xrotation Yrotation Zrotation
						JOINT newVegas:Hair_Back
						{
							OFFSET 0.000000 3.231903 -17.524799
							CHANNELS 3 Xrotation Yrotation Zrotation
							End Site
							{
								OFFSET 0.000000 19.849884 0.000000
							}
						}
						JOINT newVegas:Hair_Front
						{
							OFFSET 0.000000 31.260406 4.573800
							CHANNELS 3 Xrotation Yrotation Zrotation
							JOINT newVegas:Hair_Front1
							{
								OFFSET 0.000000 2.284103 11.993300
								CHANNELS 3 Xrotation Yrotation Zrotation
								JOINT newVegas:Hair_Front2
								{
									OFFSET 0.000000 2.284103 11.993300
									CHANNELS 3 Xrotation Yrotation Zrotation
									End Site
									{
										OFFSET 0.000000 12.208862 0.000000
									}
								}
							}
						}
						JOINT newVegas:Jowel
						{
							OFFSET 0.000000 -7.458206 6.864100
							CHANNELS 3 Xrotation Yrotation Zrotation
							End Site
							{
								OFFSET 0.000000 19.849884 0.000000
							}
						}
					}
				}
				JOINT newVegas:LeftShoulder
				{
					OFFSET 15.263000 10.923401 -0.547700
					CHANNELS 3 Xrotation Yrotation Zrotation
					JOINT newVegas:LeftArm
					{
						OFFSET 25.438599 -2.830597 -13.032500
						CHANNELS 3 Xrotation Yrotation Zrotation
						JOINT newVegas:LeftForeArm
						{
							OFFSET 29.960503 0.000000 0.000000
							CHANNELS 3 Xrotation Yrotation Zrotation
							JOINT newVegas:LeftHand
							{
								OFFSET 27.849251 0.000000 0.000000
								CHANNELS 3 Xrotation Yrotation Zrotation
								JOINT newVegas:LeftHandThumb1
								{
									OFFSET 4.487587 -3.305161 6.305391
									CHANNELS 3 Xrotation Yrotation Zrotation
									JOINT newVegas:LeftHandThumb2
									{
										OFFSET 5.480453 -3.164139 3.164143
										CHANNELS 3 Xrotation Yrotation Zrotation
										JOINT newVegas:LeftHandThumb3
										{
											OFFSET 5.159721 -2.978973 2.978967
											CHANNELS 3 Xrotation Yrotation Zrotation
											End Site
											{
												OFFSET 2.494507 5.926697 1.738678
											}
										}
									}
								}
								JOINT newVegas:LeftHandIndex1
								{
									OFFSET 18.578728 -0.527832 5.208049
									CHANNELS 3 Xrotation Yrotation Zrotation
									JOINT newVegas:LeftHandIndex2
									{
										OFFSET 3.192009 0.000000 0.000000
										CHANNELS 3 Xrotation Yrotation Zrotation
										JOINT newVegas:LeftHandIndex3
										{
											OFFSET 3.835129 0.000000 0.000000
											CHANNELS 3 Xrotation Yrotation Zrotation
											End Site
											{
												OFFSET -0.034599 3.816971 0.371180
											}
										}
									}
								}
								JOINT newVegas:LeftHandMiddle1
								{
									OFFSET 18.476105 0.000000 0.000000
									CHANNELS 3 Xrotation Yrotation Zrotation
									JOINT newVegas:LeftHandMiddle2
									{
										OFFSET 3.324875 0.000000 0.000000
										CHANNELS 3 Xrotation Yrotation Zrotation
										JOINT newVegas:LeftHandMiddle3
										{
											OFFSET 4.596550 0.000000 0.000000
											CHANNELS 3 Xrotation Yrotation Zrotation
											End Site
											{
												OFFSET 0.057701 4.578827 0.399218
											}
										}
									}
								}
								JOINT newVegas:LeftHandRing1
								{
									OFFSET 17.732719 0.121887 -4.201567
									CHANNELS 3 Xrotation Yrotation Zrotation
									JOINT newVegas:LeftHandRing2
									{
										OFFSET 2.733170 0.000000 0.000000
										CHANNELS 3 Xrotation Yrotation Zrotation
										JOINT newVegas:LeftHandRing3
										{
											OFFSET 3.178268 0.000000 0.000000
											CHANNELS 3 Xrotation Yrotation Zrotation
											End Site
											{
												OFFSET 0.119102 3.170624 0.185394
											}
										}
									}
								}
								JOINT newVegas:LeftHandPinky1
								{
									OFFSET 15.989624 -0.606689 -7.535461
									CHANNELS 3 Xrotation Yrotation Zrotation
									JOINT newVegas:LeftHandPinky2
									{
										OFFSET 2.538986 0.000000 0.000000
										CHANNELS 3 Xrotation Yrotation Zrotation
										JOINT newVegas:LeftHandPinky3
										{
											OFFSET 2.593102 0.000000 0.000000
											CHANNELS 3 Xrotation Yrotation Zrotation
											End Site
											{
												OFFSET -0.150902 2.584198 0.152708
											}
										}
									}
								}
							}
							JOINT newVegas:Left_Sleeve
							{
								OFFSET 0.267448 -0.649796 0.577675
								CHANNELS 3 Xrotation Yrotation Zrotation
								End Site
								{
									OFFSET 0.000000 15.991241 0.000000
								}
							}
							JOINT newVegas:Left_CapeC
							{
								OFFSET 15.715958 -8.608795 -6.935905
								CHANNELS 3 Xrotation Yrotation Zrotation
								JOINT newVegas:Left_CapeC1
								{
									OFFSET 0.000000 -8.688499 0.000000
									CHANNELS 3 Xrotation Yrotation Zrotation
									End Site
									{
										OFFSET 0.000000 8.688499 0.000000
									}
								}
							}
						}
						JOINT newVegas:Left_CapeB
						{
							OFFSET 26.118385 -8.608795 -7.079235
							CHANNELS 3 Xrotation Yrotation Zrotation
							JOINT newVegas:Left_CapeB1
							{
								OFFSET 0.000000 -8.688499 0.000000
								CHANNELS 3 Xrotation Yrotation Zrotation
								End Site
								{
									OFFSET 0.000000 8.688499 0.000000
								}
							}
						}
						JOINT newVegas:Left_CapeA
						{
							OFFSET 5.115639 -8.608795 -10.395809
							CHANNELS 3 Xrotation Yrotation Zrotation
							JOINT newVegas:Left_CapeA1
							{
								OFFSET 0.000000 -8.688499 0.000000
								CHANNELS 3 Xrotation Yrotation Zrotation
								End Site
								{
									OFFSET 0.000000 8.688499 0.000000
								}
							}
						}
					}
				}
				JOINT newVegas:RightShoulder
				{
					OFFSET -15.263000 10.923401 -0.547700
					CHANNELS 3 Xrotation Yrotation Zrotation
					JOINT newVegas:RightArm
					{
						OFFSET -25.438599 -2.830597 -13.032500
						CHANNELS 3 Xrotation Yrotation Zrotation
						JOINT newVegas:RightForeArm
						{
							OFFSET -29.960503 0.000000 0.000000
							CHANNELS 3 Xrotation Yrotation Zrotation
							JOINT newVegas:RightHand
							{
								OFFSET -27.849251 0.000000 0.000000
								CHANNELS 3 Xrotation Yrotation Zrotation
								JOINT newVegas:RightHandThumb1
								{
									OFFSET -4.487587 -3.305161 6.305391
									CHANNELS 3 Xrotation Yrotation Zrotation
									JOINT newVegas:RightHandThumb2
									{
										OFFSET -5.480453 -3.164139 3.164143
										CHANNELS 3 Xrotation Yrotation Zrotation
										JOINT newVegas:RightHandThumb3
										{
											OFFSET -5.159721 -2.978973 2.978967
											CHANNELS 3 Xrotation Yrotation Zrotation
											End Site
											{
												OFFSET -2.494507 5.926697 1.738678
											}
										}
									}
								}
								JOINT newVegas:RightHandIndex1
								{
									OFFSET -18.578728 -0.527832 5.208049
									CHANNELS 3 Xrotation Yrotation Zrotation
									JOINT newVegas:RightHandIndex2
									{
										OFFSET -3.192009 0.000000 0.000000
										CHANNELS 3 Xrotation Yrotation Zrotation
										JOINT newVegas:RightHandIndex3
										{
											OFFSET -3.835129 0.000000 0.000000
											CHANNELS 3 Xrotation Yrotation Zrotation
											End Site
											{
												OFFSET 0.034599 3.816971 0.371180
											}
										}
									}
								}
								JOINT newVegas:RightHandMiddle1
								{
									OFFSET -18.476105 0.000000 0.000000
									CHANNELS 3 Xrotation Yrotation Zrotation
									JOINT newVegas:RightHandMiddle2
									{
										OFFSET -3.324875 0.000000 0.000000
										CHANNELS 3 Xrotation Yrotation Zrotation
										JOINT newVegas:RightHandMiddle3
										{
											OFFSET -4.596550 0.000000 0.000000
											CHANNELS 3 Xrotation Yrotation Zrotation
											End Site
											{
												OFFSET -0.057701 4.578827 0.399218
											}
										}
									}
								}
								JOINT newVegas:RightHandRing1
								{
									OFFSET -17.732719 0.121887 -4.201567
									CHANNELS 3 Xrotation Yrotation Zrotation
									JOINT newVegas:RightHandRing2
									{
										OFFSET -2.733170 0.000000 0.000000
										CHANNELS 3 Xrotation Yrotation Zrotation
										JOINT newVegas:RightHandRing3
										{
											OFFSET -3.178268 0.000000 0.000000
											CHANNELS 3 Xrotation Yrotation Zrotation
											End Site
											{
												OFFSET -0.119102 3.170624 0.185394
											}
										}
									}
								}
								JOINT newVegas:RightHandPinky1
								{
									OFFSET -15.989624 -0.606689 -7.535461
									CHANNELS 3 Xrotation Yrotation Zrotation
									JOINT newVegas:RightHandPinky2
									{
										OFFSET -2.538986 0.000000 0.000000
										CHANNELS 3 Xrotation Yrotation Zrotation
										JOINT newVegas:RightHandPinky3
										{
											OFFSET -2.593102 0.000000 0.000000
											CHANNELS 3 Xrotation Yrotation Zrotation
											End Site
											{
												OFFSET 0.150902 2.584198 0.152708
											}
										}
									}
								}
							}
							JOINT newVegas:Right_CapeC
							{
								OFFSET -15.715958 -8.608795 -6.935905
								CHANNELS 3 Xrotation Yrotation Zrotation
								JOINT newVegas:Right_CapeC1
								{
									OFFSET 0.000000 -8.688499 0.000000
									CHANNELS 3 Xrotation Yrotation Zrotation
									End Site
									{
										OFFSET 0.000000 8.688499 0.000000
									}
								}
							}
							JOINT newVegas:Right_Sleeve
							{
								OFFSET -0.267448 -0.649994 0.577675
								CHANNELS 3 Xrotation Yrotation Zrotation
								End Site
								{
									OFFSET 0.000000 15.991302 0.000000
								}
							}
						}
						JOINT newVegas:Right_CapeA
						{
							OFFSET -5.115540 -8.608795 -10.395824
							CHANNELS 3 Xrotation Yrotation Zrotation
							JOINT newVegas:Right_CapeA1
							{
								OFFSET 0.000000 -8.688499 0.000000
								CHANNELS 3 Xrotation Yrotation Zrotation
								End Site
								{
									OFFSET 0.000000 8.688499 0.000000
								}
							}
						}
						JOINT newVegas:Right_CapeB
						{
							OFFSET -26.118187 -8.608795 -7.079266
							CHANNELS 3 Xrotation Yrotation Zrotation
							JOINT newVegas:Right_CapeB1
							{
								OFFSET 0.000000 -8.688499 0.000000
								CHANNELS 3 Xrotation Yrotation Zrotation
								End Site
								{
									OFFSET 0.000000 8.688499 0.000000
								}
							}
						}
					}
				}
				JOINT newVegas:Left_Collar
				{
					OFFSET 18.625099 8.655502 8.828100
					CHANNELS 3 Xrotation Yrotation Zrotation
					JOINT newVegas:Left_Collar1
					{
						OFFSET 14.783401 10.540405 -1.259500
						CHANNELS 3 Xrotation Yrotation Zrotation
						End Site
						{
							OFFSET 0.000000 18.199875 0.000000
						}
					}
				}
				JOINT newVegas:Collar_Back
				{
					OFFSET 0.000000 15.630707 -20.132601
					CHANNELS 3 Xrotation Yrotation Zrotation
					End Site
					{
						OFFSET 0.000000 22.523010 0.000000
					}
				}
				JOINT newVegas:Left_Peck
				{
					OFFSET 17.239599 -5.132599 25.482599
					CHANNELS 3 Xrotation Yrotation Zrotation
					End Site
					{
						OFFSET 0.000000 22.523010 0.000000
					}
				}
				JOINT newVegas:Right_Peck
				{
					OFFSET -17.239599 -5.132202 25.482599
					CHANNELS 3 Xrotation Yrotation Zrotation
					End Site
					{
						OFFSET 0.000000 22.523010 0.000000
					}
				}
				JOINT newVegas:Right_Collar
				{
					OFFSET -18.625099 8.655792 8.828100
					CHANNELS 3 Xrotation Yrotation Zrotation
					JOINT newVegas:Right_Collar1
					{
						OFFSET -14.783401 10.539993 -1.259500
						CHANNELS 3 Xrotation Yrotation Zrotation
						End Site
						{
							OFFSET 0.000000 18.199631 0.000000
						}
					}
				}
			}
		}
		JOINT newVegas:Belly
		{
			OFFSET 0.000000 -6.540398 9.014299
			CHANNELS 3 Xrotation Yrotation Zrotation
			End Site
			{
				OFFSET 0.000000 11.566666 0.000000
			}
		}
	}
	JOINT newVegas:ElvisFacialAnim_Joint
	{
		OFFSET 1.000000 -95.330101 -8.825800
		CHANNELS 3 Xrotation Yrotation Zrotation
		End Site
		{
			OFFSET 0.000000 35.315800 0.000000
		}
	}
}
MOTION
Frames: 4
Frame Time: 0.016667
-0.194889 92.706314 2.462246 -24.519764 -2.732001 -1.139353 -0.000001 0.000000 -0.000000 7.964065 20.948228 5.462258 36.720436 5.327067 -10.189666 -25.315492 28.903738 9.728956 0.000000 -0.000000 -0.000000 0.000000 -0.000001 0.000002 27.308548 -15.331285 0.855835 25.070401 -10.490383 0.074617 -24.951267 -28.332014 0.650324 -0.000000 0.000001 0.000000 0.000001 -0.000001 -0.000001 11.143632 -4.581596 -1.265095 3.545658 -2.400647 -0.151373 3.557021 -2.388380 -0.108336 0.618092 0.256542 -0.523029 0.618092 0.256544 -0.523029 -0.000000 0.000000 0.000000 0.618088 0.256542 -0.523028 0.618090 0.256543 -0.523030 0.000000 0.000000 0.000000 -0.000000 0.000000 -0.000000 0.445072 -15.488173 -11.025447 -20.285397 3.054801 -36.773554 0.000027 -67.201917 0.000039 -41.639982 -11.471780 -7.743329 -22.783310 -14.798011 12.273485 3.104722 10.435600 14.815848 -0.000000 -0.000005 -0.000005 1.968596 -2.875764 26.071484 3.265038 5.250341 -63.730412 0.000001 -0.000000 0.000004 -0.918327 3.905217 20.820674 2.974875 5.097494 -60.513816 -0.000002 0.000000 0.000001 -6.190598 13.399342 27.815691 3.764262 5.467489 -69.071941 0.000000 -0.000002 -0.000003 -10.204741 21.361497 28.797812 0.278396 1.786145 -17.716445 -0.000000 0.000002 0.000001 -0.000000 0.000000 0.000000 -0.000000 0.000000 0.000000 -0.000001 0.000000 0.000000 -0.000001 0.000003 0.000000 -0.000001 0.000003 -0.000001 -0.000001 0.000003 0.000000 -0.000001 0.000002 -0.000000 0.064830 14.691503 14.953772 -12.069988 -6.923741 61.446629 -0.000006 39.415430 0.000013 -1.892003 -4.118463 24.314828 -20.073115 16.089474 -24.921349 8.794295 -40.952762 -1.386089 0.000001 -0.000001 0.000001 1.063126 -5.182549 38.505516 3.100491 -4.389848 70.453032 0.000001 0.000001 -0.000001 2.946400 -6.593235 70.499853 0.642384 -2.362167 30.423124 -0.000004 -0.000001 0.000000 5.948309 -7.199696 80.598561 0.322680 -1.704984 21.432113 0.000003 0.000002 0.000001 1.932500 -22.479131 97.263301 1.111361 -3.021262 40.383995 -0.000001 0.000002 -0.000005 -0.000000 0.000001 -0.000000 0.000001 -0.000001 0.000000 -0.000000 0.000001 0.000001 -0.000000 0.000003 -0.000001 -0.000001 0.000003 -0.000000 -0.000000 0.000003 -0.000001 -0.000001 0.000003 -0.000001 -0.000000 0.000000 -0.000000 -0.000000 0.000000 -0.000000 -0.000000 0.000000 -0.000000 -0.000000 0.000000 -0.000000 -0.000000 0.000000 -0.000000 -0.000000 0.000000 -0.000000 -0.000000 0.000000 -0.000000 -0.000000 -0.000001 -0.000000 -0.000001 0.000000 -0.000000 
-0.648636 92.715714 2.682770 -24.544660 -3.702684 -1.575600 -0.000000 -0.000000 0.000000 6.486842 21.343687 6.826475 38.921177 5.382284 -10.141619 -24.257832 29.095158 8.772350 0.000000 -0.000001 -0.000000 0.000001 0.000001 0.000000 27.377720 -14.942905 0.996115 24.969981 -10.342948 0.150533 -25.166290 -27.758958 0.298669 0.000000 -0.000001 0.000000 -0.000000 -0.000000 -0.000001 11.143064 -4.581159 -1.272001 3.545658 -2.400647 -0.151373 3.557021 -2.388382 -0.108336 0.625116 0.255938 -0.512152 0.625125 0.255940 -0.512162 -0.000000 0.000001 0.000000 0.625187 0.255936 -0.512151 0.625039 0.255913 -0.512149 -0.000000 0.000001 -0.000000 -0.000000 0.000001 0.000000 0.453286 -15.502117 -10.972479 -20.293313 3.094330 -36.833626 -0.000002 -67.199328 0.000003 -41.623692 -11.480591 -7.750265 -22.783310 -14.798006 12.273481 3.108307 10.435745 14.812923 0.000001 -0.000000 -0.000003 1.972010 -2.886995 26.060452 3.263314 5.249497 -63.711704 -0.000001 -0.000001 -0.000004 -0.911531 3.888570 20.812146 2.975741 5.097954 -60.523604 0.000001 -0.000000 -0.000001 -6.204517 13.442080 27.794055 3.753714 5.463457 -68.961176 -0.000000 -0.000001 -0.000001 -10.221024 21.393290 28.797331 0.277954 1.784777 -17.702307 0.000001 -0.000003 -0.000001 0.000001 0.000000 0.000000 0.000001 0.000000 0.000000 0.000000 0.000000 0.000000 -0.000001 -0.000001 -0.000000 -0.000001 -0.000002 -0.000003 -0.000001 -0.000001 -0.000000 -0.000001 -0.000003 -0.000001 0.059575 14.649712 15.003830 -12.024882 -6.807494 61.377644 -0.000004 39.437020 0.000018 -1.973393 -4.141924 24.291525 -20.073120 16.089469 -24.921356 8.794297 -40.952762 -1.386091 -0.000001 -0.000001 -0.000001 1.073331 -5.197509 38.626093 3.094985 -4.387879 70.380783 0.000002 -0.000001 -0.000002 2.960349 -6.598214 70.519729 0.642397 -2.362196 30.423578 0.000002 0.000001 -0.000001 5.942365 -7.197733 80.626688 0.322961 -1.705690 21.441507 0.000001 0.000003 -0.000002 1.935753 -22.481224 97.290225 1.111359 -3.021260 40.383999 -0.000001 0.000002 -0.000003 -0.000000 0.000003 -0.000000 0.000001 -0.000000 -0.000001 -0.000000 0.000003 -0.000002 -0.000000 0.000001 0.000002 -0.000001 0.000002 0.000002 -0.000000 0.000001 0.000002 -0.000001 0.000002 0.000002 0.000000 0.000001 0.000000 0.000000 0.000001 0.000000 0.000000 0.000001 0.000000 0.000000 0.000001 0.000000 0.000000 0.000001 0.000000 0.000000 0.000001 0.000000 0.000000 0.000001 0.000000 -0.000001 -0.000000 -0.000000 -0.000000 -0.000000 0.000000 
-1.078791 92.724548 2.875820 -24.577290 -4.677319 -2.017745 -0.000000 0.000000 -0.000000 4.686993 21.687782 8.291914 41.348012 5.433053 -10.081239 -22.944713 29.232359 8.129555 -0.000000 0.000001 -0.000000 0.000003 -0.000001 0.000001 27.392651 -14.563186 1.104574 24.923270 -10.256925 0.213169 -25.341061 -27.120753 0.017689 -0.000000 0.000001 -0.000000 0.000001 -0.000001 -0.000001 11.142702 -4.582489 -1.276503 3.545659 -2.400646 -0.151372 3.557023 -2.388382 -0.108336 0.635371 0.254229 -0.500853 0.635409 0.254232 -0.500861 -0.000001 0.000000 0.000000 0.635322 0.254260 -0.500855 0.635419 0.254167 -0.500839 0.000000 0.000001 0.000000 -0.000001 0.000000 0.000000 0.460828 -15.508030 -10.923491 -20.284320 3.109531 -36.878930 0.000085 -67.192874 0.000093 -41.627039 -11.498699 -7.746709 -22.783310 -14.798010 12.273489 3.113747 10.435897 14.808472 0.000001 -0.000002 -0.000003 1.969725 -2.895168 26.045166 3.259424 5.247588 -63.669056 0.000002 0.000001 0.000001 -0.905928 3.873781 20.810144 2.976650 5.098465 -60.533624 -0.000000 0.000001 -0.000003 -6.207482 13.460011 27.775157 3.749423 5.461812 -68.916240 -0.000000 0.000001 -0.000002 -10.231271 21.412771 28.801436 0.278410 1.786175 -17.716703 -0.000001 0.000000 -0.000000 0.000001 0.000000 0.000001 0.000001 0.000000 0.000001 0.000000 0.000001 0.000001 -0.000000 0.000002 0.000001 -0.000000 0.000001 0.000001 -0.000000 0.000002 0.000001 -0.000000 -0.000000 0.000000 0.056287 14.633617 15.032353 -11.965736 -6.692803 61.317156 -0.000024 39.454069 0.000038 -2.087406 -4.155315 24.254586 -20.073120 16.089474 -24.921354 8.794301 -40.952762 -1.386092 -0.000000 -0.000004 0.000001 1.083624 -5.208401 38.767939 3.091868 -4.386762 70.339979 -0.000001 0.000000 0.000001 2.965369 -6.600084 70.543601 0.642280 -2.361946 30.420119 -0.000001 0.000000 -0.000001 5.939519 -7.195767 80.668666 0.323121 -1.706114 21.447079 0.000001 -0.000001 -0.000002 1.933426 -22.482345 97.298244 1.111361 -3.021258 40.383995 -0.000002 0.000002 -0.000003 -0.000000 0.000000 0.000000 0.000001 -0.000000 0.000000 -0.000000 -0.000000 0.000002 -0.000001 0.000001 -0.000000 -0.000001 0.000002 -0.000000 -0.000001 0.000001 -0.000000 -0.000001 0.000002 -0.000000 -0.000001 0.000001 0.000000 -0.000001 0.000001 0.000000 -0.000001 0.000001 0.000000 -0.000001 0.000001 0.000000 -0.000001 0.000001 0.000000 -0.000001 0.000001 0.000000 -0.000001 0.000001 0.000000 -0.000000 0.000001 0.000000 -0.000000 0.000000 -0.000000 
-1.551298 92.723671 3.094666 -24.617784 -5.656249 -2.466314 0.000000 0.000000 0.000000 2.663903 21.929350 9.881503 43.867184 5.445724 -9.985130 -21.377001 29.330871 7.753259 -0.000000 0.000001 0.000000 -0.000000 -0.000001 0.000003 27.470514 -14.195805 1.257823 24.834655 -10.216684 0.254758 -25.524412 -26.430353 -0.242600 -0.000000 -0.000001 0.000000 0.000000 -0.000001 0.000000 11.142517 -4.584998 -1.278401 3.545659 -2.400647 -0.151372 3.557023 -2.388380 -0.108335 0.646641 0.251156 -0.488362 0.646617 0.251159 -0.488351 -0.000001 -0.000001 -0.000000 0.646616 0.251122 -0.488356 0.646875 0.251228 -0.488376 -0.000000 -0.000001 -0.000000 -0.000001 -0.000001 -0.000000 0.467433 -15.512265 -10.880578 -20.273863 3.119682 -36.916913 -0.000007 -67.186679 -0.000005 -41.632902 -11.516134 -7.742038 -22.783310 -14.798013 12.273480 3.121098 10.436152 14.802468 0.000002 0.000001 -0.000003 1.966055 -2.898943 26.024732 3.255066 5.245467 -63.621511 -0.000001 -0.000001 -0.000002 -0.901177 3.860916 20.811105 2.977368 5.098889 -60.541964 0.000000 0.000001 -0.000002 -6.204277 13.462559 27.760018 3.748897 5.461598 -68.910516 0.000001 -0.000001 -0.000000 -10.237952 21.423489 28.810103 0.279211 1.788704 -17.742610 -0.000001 0.000002 -0.000000 0.000002 0.000001 0.000000 0.000002 0.000001 0.000000 0.000001 0.000001 0.000000 0.000002 -0.000001 0.000002 0.000002 -0.000001 -0.000001 0.000002 -0.000001 0.000002 0.000002 -0.000003 0.000001 0.054409 14.630955 15.046422 -11.904865 -6.587385 61.267357 -0.000014 39.465724 0.000019 -2.208372 -4.161590 24.213823 -20.073120 16.089477 -24.921356 8.794297 -40.952756 -1.386086 0.000001 -0.000003 0.000001 1.092570 -5.215358 38.900314 3.089323 -4.385877 70.307133 0.000004 0.000001 -0.000002 2.965384 -6.600158 70.564392 0.642083 -2.361632 30.415580 0.000002 0.000000 -0.000001 5.938354 -7.193968 80.713705 0.323236 -1.706377 21.450621 -0.000003 0.000002 -0.000000 1.923056 -22.482466 97.283593 1.111361 -3.021261 40.383992 0.000003 0.000002 -0.000002 -0.000001 0.000000 -0.000001 0.000001 0.000000 -0.000001 -0.000001 0.000000 -0.000001 -0.000000 -0.000002 -0.000001 -0.000000 -0.000001 -0.000001 -0.000000 -0.000002 -0.000001 -0.000000 -0.000001 -0.000001 0.000000 0.000000 0.000000 0.000000 0.000000 0.000000 0.000000 0.000000 0.000000 0.000000 0.000000 0.000000 0.000000 0.000000 0.000000 0.000000 0.000000 0.000000 0.000000 0.000000 0.000000 -0.000000 -0.000000 -0.000000 0.000000 0.000000 0.000000 
